<?xml version="1.0" encoding="UTF-8" standalone="no"?>
<!DOCTYPE svg PUBLIC "-//W3C//DTD SVG 1.1//EN"
 "http://www.w3.org/Graphics/SVG/1.1/DTD/svg11.dtd">
<!-- Generated by graphviz version 2.43.0 (0)
 -->
<!-- Title: parsing::Parser Pages: 1 -->
<svg width="124pt" height="1087pt"
 viewBox="0.00 0.00 124.00 1087.00" xmlns="http://www.w3.org/2000/svg" xmlns:xlink="http://www.w3.org/1999/xlink">
<g id="graph0" class="graph" transform="scale(1 1) rotate(0) translate(4 1083)">
<title>parsing::Parser</title>
<polygon fill="white" stroke="transparent" points="-4,4 -4,-1083 120,-1083 120,4 -4,4"/>
<!-- Node1 -->
<g id="node1" class="node">
<title>Node1</title>
<g id="a_node1"><a xlink:title=" ">
<polygon fill="#bfbfbf" stroke="black" points="0,-0.5 0,-200.5 116,-200.5 116,-0.5 0,-0.5"/>
<text text-anchor="middle" x="58" y="-188.5" font-family="Helvetica,sans-Serif" font-size="10.00">parsing::Parser</text>
<polyline fill="none" stroke="black" points="0,-181.5 116,-181.5 "/>
<text text-anchor="start" x="8" y="-169.5" font-family="Helvetica,sans-Serif" font-size="10.00"># _ignoreCase</text>
<text text-anchor="start" x="8" y="-158.5" font-family="Helvetica,sans-Serif" font-size="10.00"># _verbose</text>
<text text-anchor="start" x="8" y="-147.5" font-family="Helvetica,sans-Serif" font-size="10.00"># tokNumCount</text>
<text text-anchor="start" x="8" y="-136.5" font-family="Helvetica,sans-Serif" font-size="10.00"># proj</text>
<polyline fill="none" stroke="black" points="0,-129.5 116,-129.5 "/>
<text text-anchor="start" x="8" y="-117.5" font-family="Helvetica,sans-Serif" font-size="10.00">+ ~Parser()</text>
<text text-anchor="start" x="8" y="-106.5" font-family="Helvetica,sans-Serif" font-size="10.00">+ Parser()</text>
<text text-anchor="start" x="8" y="-95.5" font-family="Helvetica,sans-Serif" font-size="10.00">+ Parser()</text>
<text text-anchor="start" x="8" y="-84.5" font-family="Helvetica,sans-Serif" font-size="10.00">+ Parser()</text>
<text text-anchor="start" x="8" y="-73.5" font-family="Helvetica,sans-Serif" font-size="10.00">+ advance()</text>
<text text-anchor="start" x="8" y="-62.5" font-family="Helvetica,sans-Serif" font-size="10.00">+ assignNextBoolean()</text>
<text text-anchor="start" x="8" y="-51.5" font-family="Helvetica,sans-Serif" font-size="10.00">+ assignNextDouble()</text>
<text text-anchor="start" x="8" y="-40.5" font-family="Helvetica,sans-Serif" font-size="10.00">+ assignNextInt()</text>
<text text-anchor="start" x="8" y="-29.5" font-family="Helvetica,sans-Serif" font-size="10.00">+ assignNextString()</text>
<text text-anchor="start" x="8" y="-18.5" font-family="Helvetica,sans-Serif" font-size="10.00">+ assignNextVector()</text>
<text text-anchor="start" x="8" y="-7.5" font-family="Helvetica,sans-Serif" font-size="10.00">and 44 more...</text>
</a>
</g>
</g>
<!-- Node2 -->
<g id="node2" class="node">
<title>Node2</title>
<g id="a_node2"><a xlink:href="classparsing_1_1TokenList.html" target="_top" xlink:title=" ">
<polygon fill="white" stroke="black" points="10,-248.5 10,-415.5 106,-415.5 106,-248.5 10,-248.5"/>
<text text-anchor="middle" x="58" y="-403.5" font-family="Helvetica,sans-Serif" font-size="10.00">parsing::TokenList</text>
<polyline fill="none" stroke="black" points="10,-396.5 106,-396.5 "/>
<text text-anchor="middle" x="58" y="-384.5" font-family="Helvetica,sans-Serif" font-size="10.00"> </text>
<polyline fill="none" stroke="black" points="10,-377.5 106,-377.5 "/>
<text text-anchor="start" x="18" y="-365.5" font-family="Helvetica,sans-Serif" font-size="10.00">+ ~TokenList()</text>
<text text-anchor="start" x="18" y="-354.5" font-family="Helvetica,sans-Serif" font-size="10.00">+ TokenList()</text>
<text text-anchor="start" x="18" y="-343.5" font-family="Helvetica,sans-Serif" font-size="10.00">+ TokenList()</text>
<text text-anchor="start" x="18" y="-332.5" font-family="Helvetica,sans-Serif" font-size="10.00">+ advance()</text>
<text text-anchor="start" x="18" y="-321.5" font-family="Helvetica,sans-Serif" font-size="10.00">+ begin()</text>
<text text-anchor="start" x="18" y="-310.5" font-family="Helvetica,sans-Serif" font-size="10.00">+ begin()</text>
<text text-anchor="start" x="18" y="-299.5" font-family="Helvetica,sans-Serif" font-size="10.00">+ end()</text>
<text text-anchor="start" x="18" y="-288.5" font-family="Helvetica,sans-Serif" font-size="10.00">+ end()</text>
<text text-anchor="start" x="18" y="-277.5" font-family="Helvetica,sans-Serif" font-size="10.00">+ isBool()</text>
<text text-anchor="start" x="18" y="-266.5" font-family="Helvetica,sans-Serif" font-size="10.00">+ isChar()</text>
<text text-anchor="start" x="18" y="-255.5" font-family="Helvetica,sans-Serif" font-size="10.00">and 20 more...</text>
</a>
</g>
</g>
<!-- Node2&#45;&gt;Node1 -->
<g id="edge1" class="edge">
<title>Node2&#45;&gt;Node1</title>
<path fill="none" stroke="#404040" d="M58,-248.47C58,-236.81 58,-224.66 58,-212.57"/>
<polygon fill="none" stroke="#404040" points="58,-212.52 54,-206.52 58,-200.52 62,-206.52 58,-212.52"/>
<text text-anchor="middle" x="68" y="-222" font-family="Helvetica,sans-Serif" font-size="10.00"> #TL</text>
</g>
<!-- Node3 -->
<g id="node3" class="node">
<title>Node3</title>
<g id="a_node3"><a xlink:title=" ">
<polygon fill="white" stroke="#bfbfbf" points="6,-474.5 6,-542.5 110,-542.5 110,-474.5 6,-474.5"/>
<text text-anchor="start" x="14" y="-530.5" font-family="Helvetica,sans-Serif" font-size="10.00">std::vector&lt; parsing</text>
<text text-anchor="middle" x="58" y="-519.5" font-family="Helvetica,sans-Serif" font-size="10.00">::Token &gt;</text>
<polyline fill="none" stroke="#bfbfbf" points="6,-512.5 110,-512.5 "/>
<text text-anchor="middle" x="58" y="-500.5" font-family="Helvetica,sans-Serif" font-size="10.00"> </text>
<polyline fill="none" stroke="#bfbfbf" points="6,-493.5 110,-493.5 "/>
<text text-anchor="middle" x="58" y="-481.5" font-family="Helvetica,sans-Serif" font-size="10.00"> </text>
</a>
</g>
</g>
<!-- Node3&#45;&gt;Node2 -->
<g id="edge2" class="edge">
<title>Node3&#45;&gt;Node2</title>
<path fill="none" stroke="#404040" d="M58,-474.27C58,-460.82 58,-444.55 58,-427.9"/>
<polygon fill="none" stroke="#404040" points="58,-427.75 54,-421.75 58,-415.75 62,-421.75 58,-427.75"/>
<text text-anchor="middle" x="78" y="-448" font-family="Helvetica,sans-Serif" font-size="10.00"> +current</text>
<text text-anchor="middle" x="78" y="-437" font-family="Helvetica,sans-Serif" font-size="10.00">+toks</text>
</g>
<!-- Node4 -->
<g id="node4" class="node">
<title>Node4</title>
<g id="a_node4"><a xlink:href="classparsing_1_1Token.html" target="_top" xlink:title=" ">
<polygon fill="white" stroke="black" points="9,-590.5 9,-867.5 107,-867.5 107,-590.5 9,-590.5"/>
<text text-anchor="middle" x="58" y="-855.5" font-family="Helvetica,sans-Serif" font-size="10.00">parsing::Token</text>
<polyline fill="none" stroke="black" points="9,-848.5 107,-848.5 "/>
<text text-anchor="start" x="17" y="-836.5" font-family="Helvetica,sans-Serif" font-size="10.00">+ type</text>
<text text-anchor="start" x="17" y="-825.5" font-family="Helvetica,sans-Serif" font-size="10.00">+ b</text>
<text text-anchor="start" x="17" y="-814.5" font-family="Helvetica,sans-Serif" font-size="10.00">+ c</text>
<text text-anchor="start" x="17" y="-803.5" font-family="Helvetica,sans-Serif" font-size="10.00">+ d</text>
<text text-anchor="start" x="17" y="-792.5" font-family="Helvetica,sans-Serif" font-size="10.00">+ i</text>
<text text-anchor="start" x="17" y="-781.5" font-family="Helvetica,sans-Serif" font-size="10.00">+ end</text>
<text text-anchor="start" x="17" y="-770.5" font-family="Helvetica,sans-Serif" font-size="10.00">+ start</text>
<polyline fill="none" stroke="black" points="9,-763.5 107,-763.5 "/>
<text text-anchor="start" x="17" y="-751.5" font-family="Helvetica,sans-Serif" font-size="10.00">+ ~Token()</text>
<text text-anchor="start" x="17" y="-740.5" font-family="Helvetica,sans-Serif" font-size="10.00">+ Token()</text>
<text text-anchor="start" x="17" y="-729.5" font-family="Helvetica,sans-Serif" font-size="10.00">+ Token()</text>
<text text-anchor="start" x="17" y="-718.5" font-family="Helvetica,sans-Serif" font-size="10.00">+ getLineNumber()</text>
<text text-anchor="start" x="17" y="-707.5" font-family="Helvetica,sans-Serif" font-size="10.00">+ getType()</text>
<text text-anchor="start" x="17" y="-696.5" font-family="Helvetica,sans-Serif" font-size="10.00">+ operator=()</text>
<text text-anchor="start" x="17" y="-685.5" font-family="Helvetica,sans-Serif" font-size="10.00">+ set()</text>
<text text-anchor="start" x="17" y="-674.5" font-family="Helvetica,sans-Serif" font-size="10.00">+ set()</text>
<text text-anchor="start" x="17" y="-663.5" font-family="Helvetica,sans-Serif" font-size="10.00">+ set()</text>
<text text-anchor="start" x="17" y="-652.5" font-family="Helvetica,sans-Serif" font-size="10.00">+ set()</text>
<text text-anchor="start" x="17" y="-641.5" font-family="Helvetica,sans-Serif" font-size="10.00">+ set()</text>
<text text-anchor="start" x="17" y="-630.5" font-family="Helvetica,sans-Serif" font-size="10.00">+ set()</text>
<text text-anchor="start" x="17" y="-619.5" font-family="Helvetica,sans-Serif" font-size="10.00">+ setLineNum()</text>
<text text-anchor="start" x="17" y="-608.5" font-family="Helvetica,sans-Serif" font-size="10.00">+ setNum()</text>
<text text-anchor="start" x="17" y="-597.5" font-family="Helvetica,sans-Serif" font-size="10.00">+ toString()</text>
</a>
</g>
</g>
<!-- Node4&#45;&gt;Node3 -->
<g id="edge3" class="edge">
<title>Node4&#45;&gt;Node3</title>
<path fill="none" stroke="#404040" d="M58,-590.24C58,-577.62 58,-565.55 58,-554.76"/>
<polygon fill="none" stroke="#404040" points="58,-554.74 54,-548.74 58,-542.74 62,-548.74 58,-554.74"/>
<text text-anchor="middle" x="82.5" y="-564" font-family="Helvetica,sans-Serif" font-size="10.00"> +elements</text>
</g>
<!-- Node5 -->
<g id="node5" class="node">
<title>Node5</title>
<g id="a_node5"><a xlink:title=" ">
<polygon fill="white" stroke="#bfbfbf" points="28,-915.5 28,-972.5 88,-972.5 88,-915.5 28,-915.5"/>
<text text-anchor="middle" x="58" y="-960.5" font-family="Helvetica,sans-Serif" font-size="10.00">std::string</text>
<polyline fill="none" stroke="#bfbfbf" points="28,-953.5 88,-953.5 "/>
<text text-anchor="middle" x="58" y="-941.5" font-family="Helvetica,sans-Serif" font-size="10.00"> </text>
<polyline fill="none" stroke="#bfbfbf" points="28,-934.5 88,-934.5 "/>
<text text-anchor="middle" x="58" y="-922.5" font-family="Helvetica,sans-Serif" font-size="10.00"> </text>
</a>
</g>
</g>
<!-- Node5&#45;&gt;Node4 -->
<g id="edge4" class="edge">
<title>Node5&#45;&gt;Node4</title>
<path fill="none" stroke="#404040" d="M58,-915.15C58,-905.23 58,-893.24 58,-880.19"/>
<polygon fill="none" stroke="#404040" points="58,-879.94 54,-873.94 58,-867.94 62,-873.94 58,-879.94"/>
<text text-anchor="middle" x="65.5" y="-889" font-family="Helvetica,sans-Serif" font-size="10.00"> +s</text>
</g>
<!-- Node6 -->
<g id="node6" class="node">
<title>Node6</title>
<g id="a_node6"><a xlink:title=" ">
<polygon fill="white" stroke="#bfbfbf" points="10.5,-1010.5 10.5,-1078.5 105.5,-1078.5 105.5,-1010.5 10.5,-1010.5"/>
<text text-anchor="start" x="18.5" y="-1066.5" font-family="Helvetica,sans-Serif" font-size="10.00">std::basic_string&lt;</text>
<text text-anchor="middle" x="58" y="-1055.5" font-family="Helvetica,sans-Serif" font-size="10.00"> Char &gt;</text>
<polyline fill="none" stroke="#bfbfbf" points="10.5,-1048.5 105.5,-1048.5 "/>
<text text-anchor="middle" x="58" y="-1036.5" font-family="Helvetica,sans-Serif" font-size="10.00"> </text>
<polyline fill="none" stroke="#bfbfbf" points="10.5,-1029.5 105.5,-1029.5 "/>
<text text-anchor="middle" x="58" y="-1017.5" font-family="Helvetica,sans-Serif" font-size="10.00"> </text>
</a>
</g>
</g>
<!-- Node6&#45;&gt;Node5 -->
<g id="edge5" class="edge">
<title>Node6&#45;&gt;Node5</title>
<path fill="none" stroke="midnightblue" d="M58,-1000.38C58,-990.94 58,-981.2 58,-972.57"/>
<polygon fill="none" stroke="midnightblue" points="54.5,-1000.43 58,-1010.43 61.5,-1000.43 54.5,-1000.43"/>
</g>
</g>
</svg>
