<?xml version="1.0" encoding="UTF-8" standalone="no"?>
<!DOCTYPE svg PUBLIC "-//W3C//DTD SVG 1.1//EN"
 "http://www.w3.org/Graphics/SVG/1.1/DTD/svg11.dtd">
<!-- Generated by graphviz version 2.43.0 (0)
 -->
<!-- Title: parsing::Parser Pages: 1 -->
<!--zoomable 1087 -->
<svg id="main" version="1.1" xmlns="http://www.w3.org/2000/svg" xmlns:xlink="http://www.w3.org/1999/xlink" xml:space="preserve" onload="init(evt)">
<style type="text/css"><![CDATA[
.edge:hover path { stroke: red; }
.edge:hover polygon { stroke: red; fill: red; }
]]></style>
<script type="text/javascript"><![CDATA[
var edges = document.getElementsByTagName('g');
if (edges && edges.length) {
  for (var i=0;i<edges.length;i++) {
    if (edges[i].id.substr(0,4)=='edge') {
      edges[i].setAttribute('class','edge');
    }
  }
}
]]></script>
        <defs>
                <circle id="rim" cx="0" cy="0" r="7"/>
                <circle id="rim2" cx="0" cy="0" r="3.5"/>
                <g id="zoomPlus">
                        <use xlink:href="#rim" fill="#404040">
                                <set attributeName="fill" to="#808080" begin="zoomplus.mouseover" end="zoomplus.mouseout"/>
                        </use>
                        <path d="M-4,0h8M0,-4v8" fill="none" stroke="white" stroke-width="1.5" pointer-events="none"/>
                </g>
                <g id="zoomMin">
                        <use xlink:href="#rim" fill="#404040">
                                <set attributeName="fill" to="#808080" begin="zoomminus.mouseover" end="zoomminus.mouseout"/>
                        </use>
                        <path d="M-4,0h8" fill="none" stroke="white" stroke-width="1.5" pointer-events="none"/>
                </g>
                <g id="dirArrow">
                        <path fill="none" stroke="white" stroke-width="1.5" d="M0,-3.0v7 M-2.5,-0.5L0,-3.0L2.5,-0.5"/>
                </g>
               <g id="resetDef">
                       <use xlink:href="#rim2" fill="#404040">
                               <set attributeName="fill" to="#808080" begin="reset.mouseover" end="reset.mouseout"/>
                       </use>
               </g>
        </defs>

<script type="text/javascript">
var viewWidth = 124;
var viewHeight = 1087;
var sectionId = 'dynsection-0';
</script>
<script xlink:href="svgpan.js"/>
<svg id="graph" class="graph">
<g id="viewport">
<title>parsing::Parser</title>
<polygon fill="white" stroke="transparent" points="-4,4 -4,-1083 120,-1083 120,4 -4,4"/>
<!-- Node1 -->
<g id="node1" class="node">
<title>Node1</title>
<g id="a_node1"><a xlink:title=" ">
<polygon fill="#bfbfbf" stroke="black" points="0,-0.5 0,-200.5 116,-200.5 116,-0.5 0,-0.5"/>
<text text-anchor="middle" x="58" y="-188.5" font-family="Helvetica,sans-Serif" font-size="10.00">parsing::Parser</text>
<polyline fill="none" stroke="black" points="0,-181.5 116,-181.5 "/>
<text text-anchor="start" x="8" y="-169.5" font-family="Helvetica,sans-Serif" font-size="10.00"># _ignoreCase</text>
<text text-anchor="start" x="8" y="-158.5" font-family="Helvetica,sans-Serif" font-size="10.00"># _verbose</text>
<text text-anchor="start" x="8" y="-147.5" font-family="Helvetica,sans-Serif" font-size="10.00"># tokNumCount</text>
<text text-anchor="start" x="8" y="-136.5" font-family="Helvetica,sans-Serif" font-size="10.00"># proj</text>
<polyline fill="none" stroke="black" points="0,-129.5 116,-129.5 "/>
<text text-anchor="start" x="8" y="-117.5" font-family="Helvetica,sans-Serif" font-size="10.00">+ ~Parser()</text>
<text text-anchor="start" x="8" y="-106.5" font-family="Helvetica,sans-Serif" font-size="10.00">+ Parser()</text>
<text text-anchor="start" x="8" y="-95.5" font-family="Helvetica,sans-Serif" font-size="10.00">+ Parser()</text>
<text text-anchor="start" x="8" y="-84.5" font-family="Helvetica,sans-Serif" font-size="10.00">+ Parser()</text>
<text text-anchor="start" x="8" y="-73.5" font-family="Helvetica,sans-Serif" font-size="10.00">+ advance()</text>
<text text-anchor="start" x="8" y="-62.5" font-family="Helvetica,sans-Serif" font-size="10.00">+ assignNextBoolean()</text>
<text text-anchor="start" x="8" y="-51.5" font-family="Helvetica,sans-Serif" font-size="10.00">+ assignNextDouble()</text>
<text text-anchor="start" x="8" y="-40.5" font-family="Helvetica,sans-Serif" font-size="10.00">+ assignNextInt()</text>
<text text-anchor="start" x="8" y="-29.5" font-family="Helvetica,sans-Serif" font-size="10.00">+ assignNextString()</text>
<text text-anchor="start" x="8" y="-18.5" font-family="Helvetica,sans-Serif" font-size="10.00">+ assignNextVector()</text>
<text text-anchor="start" x="8" y="-7.5" font-family="Helvetica,sans-Serif" font-size="10.00">and 44 more...</text>
</a>
</g>
</g>
<!-- Node2 -->
<g id="node2" class="node">
<title>Node2</title>
<g id="a_node2"><a xlink:href="classparsing_1_1TokenList.html" target="_top" xlink:title=" ">
<polygon fill="white" stroke="black" points="10,-248.5 10,-415.5 106,-415.5 106,-248.5 10,-248.5"/>
<text text-anchor="middle" x="58" y="-403.5" font-family="Helvetica,sans-Serif" font-size="10.00">parsing::TokenList</text>
<polyline fill="none" stroke="black" points="10,-396.5 106,-396.5 "/>
<text text-anchor="middle" x="58" y="-384.5" font-family="Helvetica,sans-Serif" font-size="10.00"> </text>
<polyline fill="none" stroke="black" points="10,-377.5 106,-377.5 "/>
<text text-anchor="start" x="18" y="-365.5" font-family="Helvetica,sans-Serif" font-size="10.00">+ ~TokenList()</text>
<text text-anchor="start" x="18" y="-354.5" font-family="Helvetica,sans-Serif" font-size="10.00">+ TokenList()</text>
<text text-anchor="start" x="18" y="-343.5" font-family="Helvetica,sans-Serif" font-size="10.00">+ TokenList()</text>
<text text-anchor="start" x="18" y="-332.5" font-family="Helvetica,sans-Serif" font-size="10.00">+ advance()</text>
<text text-anchor="start" x="18" y="-321.5" font-family="Helvetica,sans-Serif" font-size="10.00">+ begin()</text>
<text text-anchor="start" x="18" y="-310.5" font-family="Helvetica,sans-Serif" font-size="10.00">+ begin()</text>
<text text-anchor="start" x="18" y="-299.5" font-family="Helvetica,sans-Serif" font-size="10.00">+ end()</text>
<text text-anchor="start" x="18" y="-288.5" font-family="Helvetica,sans-Serif" font-size="10.00">+ end()</text>
<text text-anchor="start" x="18" y="-277.5" font-family="Helvetica,sans-Serif" font-size="10.00">+ isBool()</text>
<text text-anchor="start" x="18" y="-266.5" font-family="Helvetica,sans-Serif" font-size="10.00">+ isChar()</text>
<text text-anchor="start" x="18" y="-255.5" font-family="Helvetica,sans-Serif" font-size="10.00">and 20 more...</text>
</a>
</g>
</g>
<!-- Node2&#45;&gt;Node1 -->
<g id="edge1" class="edge">
<title>Node2&#45;&gt;Node1</title>
<path fill="none" stroke="#404040" d="M58,-248.47C58,-236.81 58,-224.66 58,-212.57"/>
<polygon fill="none" stroke="#404040" points="58,-212.52 54,-206.52 58,-200.52 62,-206.52 58,-212.52"/>
<text text-anchor="middle" x="68" y="-222" font-family="Helvetica,sans-Serif" font-size="10.00"> #TL</text>
</g>
<!-- Node3 -->
<g id="node3" class="node">
<title>Node3</title>
<g id="a_node3"><a xlink:title=" ">
<polygon fill="white" stroke="#bfbfbf" points="6,-474.5 6,-542.5 110,-542.5 110,-474.5 6,-474.5"/>
<text text-anchor="start" x="14" y="-530.5" font-family="Helvetica,sans-Serif" font-size="10.00">std::vector&lt; parsing</text>
<text text-anchor="middle" x="58" y="-519.5" font-family="Helvetica,sans-Serif" font-size="10.00">::Token &gt;</text>
<polyline fill="none" stroke="#bfbfbf" points="6,-512.5 110,-512.5 "/>
<text text-anchor="middle" x="58" y="-500.5" font-family="Helvetica,sans-Serif" font-size="10.00"> </text>
<polyline fill="none" stroke="#bfbfbf" points="6,-493.5 110,-493.5 "/>
<text text-anchor="middle" x="58" y="-481.5" font-family="Helvetica,sans-Serif" font-size="10.00"> </text>
</a>
</g>
</g>
<!-- Node3&#45;&gt;Node2 -->
<g id="edge2" class="edge">
<title>Node3&#45;&gt;Node2</title>
<path fill="none" stroke="#404040" d="M58,-474.27C58,-460.82 58,-444.55 58,-427.9"/>
<polygon fill="none" stroke="#404040" points="58,-427.75 54,-421.75 58,-415.75 62,-421.75 58,-427.75"/>
<text text-anchor="middle" x="78" y="-448" font-family="Helvetica,sans-Serif" font-size="10.00"> +current</text>
<text text-anchor="middle" x="78" y="-437" font-family="Helvetica,sans-Serif" font-size="10.00">+toks</text>
</g>
<!-- Node4 -->
<g id="node4" class="node">
<title>Node4</title>
<g id="a_node4"><a xlink:href="classparsing_1_1Token.html" target="_top" xlink:title=" ">
<polygon fill="white" stroke="black" points="9,-590.5 9,-867.5 107,-867.5 107,-590.5 9,-590.5"/>
<text text-anchor="middle" x="58" y="-855.5" font-family="Helvetica,sans-Serif" font-size="10.00">parsing::Token</text>
<polyline fill="none" stroke="black" points="9,-848.5 107,-848.5 "/>
<text text-anchor="start" x="17" y="-836.5" font-family="Helvetica,sans-Serif" font-size="10.00">+ type</text>
<text text-anchor="start" x="17" y="-825.5" font-family="Helvetica,sans-Serif" font-size="10.00">+ b</text>
<text text-anchor="start" x="17" y="-814.5" font-family="Helvetica,sans-Serif" font-size="10.00">+ c</text>
<text text-anchor="start" x="17" y="-803.5" font-family="Helvetica,sans-Serif" font-size="10.00">+ d</text>
<text text-anchor="start" x="17" y="-792.5" font-family="Helvetica,sans-Serif" font-size="10.00">+ i</text>
<text text-anchor="start" x="17" y="-781.5" font-family="Helvetica,sans-Serif" font-size="10.00">+ end</text>
<text text-anchor="start" x="17" y="-770.5" font-family="Helvetica,sans-Serif" font-size="10.00">+ start</text>
<polyline fill="none" stroke="black" points="9,-763.5 107,-763.5 "/>
<text text-anchor="start" x="17" y="-751.5" font-family="Helvetica,sans-Serif" font-size="10.00">+ ~Token()</text>
<text text-anchor="start" x="17" y="-740.5" font-family="Helvetica,sans-Serif" font-size="10.00">+ Token()</text>
<text text-anchor="start" x="17" y="-729.5" font-family="Helvetica,sans-Serif" font-size="10.00">+ Token()</text>
<text text-anchor="start" x="17" y="-718.5" font-family="Helvetica,sans-Serif" font-size="10.00">+ getLineNumber()</text>
<text text-anchor="start" x="17" y="-707.5" font-family="Helvetica,sans-Serif" font-size="10.00">+ getType()</text>
<text text-anchor="start" x="17" y="-696.5" font-family="Helvetica,sans-Serif" font-size="10.00">+ operator=()</text>
<text text-anchor="start" x="17" y="-685.5" font-family="Helvetica,sans-Serif" font-size="10.00">+ set()</text>
<text text-anchor="start" x="17" y="-674.5" font-family="Helvetica,sans-Serif" font-size="10.00">+ set()</text>
<text text-anchor="start" x="17" y="-663.5" font-family="Helvetica,sans-Serif" font-size="10.00">+ set()</text>
<text text-anchor="start" x="17" y="-652.5" font-family="Helvetica,sans-Serif" font-size="10.00">+ set()</text>
<text text-anchor="start" x="17" y="-641.5" font-family="Helvetica,sans-Serif" font-size="10.00">+ set()</text>
<text text-anchor="start" x="17" y="-630.5" font-family="Helvetica,sans-Serif" font-size="10.00">+ set()</text>
<text text-anchor="start" x="17" y="-619.5" font-family="Helvetica,sans-Serif" font-size="10.00">+ setLineNum()</text>
<text text-anchor="start" x="17" y="-608.5" font-family="Helvetica,sans-Serif" font-size="10.00">+ setNum()</text>
<text text-anchor="start" x="17" y="-597.5" font-family="Helvetica,sans-Serif" font-size="10.00">+ toString()</text>
</a>
</g>
</g>
<!-- Node4&#45;&gt;Node3 -->
<g id="edge3" class="edge">
<title>Node4&#45;&gt;Node3</title>
<path fill="none" stroke="#404040" d="M58,-590.24C58,-577.62 58,-565.55 58,-554.76"/>
<polygon fill="none" stroke="#404040" points="58,-554.74 54,-548.74 58,-542.74 62,-548.74 58,-554.74"/>
<text text-anchor="middle" x="82.5" y="-564" font-family="Helvetica,sans-Serif" font-size="10.00"> +elements</text>
</g>
<!-- Node5 -->
<g id="node5" class="node">
<title>Node5</title>
<g id="a_node5"><a xlink:title=" ">
<polygon fill="white" stroke="#bfbfbf" points="28,-915.5 28,-972.5 88,-972.5 88,-915.5 28,-915.5"/>
<text text-anchor="middle" x="58" y="-960.5" font-family="Helvetica,sans-Serif" font-size="10.00">std::string</text>
<polyline fill="none" stroke="#bfbfbf" points="28,-953.5 88,-953.5 "/>
<text text-anchor="middle" x="58" y="-941.5" font-family="Helvetica,sans-Serif" font-size="10.00"> </text>
<polyline fill="none" stroke="#bfbfbf" points="28,-934.5 88,-934.5 "/>
<text text-anchor="middle" x="58" y="-922.5" font-family="Helvetica,sans-Serif" font-size="10.00"> </text>
</a>
</g>
</g>
<!-- Node5&#45;&gt;Node4 -->
<g id="edge4" class="edge">
<title>Node5&#45;&gt;Node4</title>
<path fill="none" stroke="#404040" d="M58,-915.15C58,-905.23 58,-893.24 58,-880.19"/>
<polygon fill="none" stroke="#404040" points="58,-879.94 54,-873.94 58,-867.94 62,-873.94 58,-879.94"/>
<text text-anchor="middle" x="65.5" y="-889" font-family="Helvetica,sans-Serif" font-size="10.00"> +s</text>
</g>
<!-- Node6 -->
<g id="node6" class="node">
<title>Node6</title>
<g id="a_node6"><a xlink:title=" ">
<polygon fill="white" stroke="#bfbfbf" points="10.5,-1010.5 10.5,-1078.5 105.5,-1078.5 105.5,-1010.5 10.5,-1010.5"/>
<text text-anchor="start" x="18.5" y="-1066.5" font-family="Helvetica,sans-Serif" font-size="10.00">std::basic_string&lt;</text>
<text text-anchor="middle" x="58" y="-1055.5" font-family="Helvetica,sans-Serif" font-size="10.00"> Char &gt;</text>
<polyline fill="none" stroke="#bfbfbf" points="10.5,-1048.5 105.5,-1048.5 "/>
<text text-anchor="middle" x="58" y="-1036.5" font-family="Helvetica,sans-Serif" font-size="10.00"> </text>
<polyline fill="none" stroke="#bfbfbf" points="10.5,-1029.5 105.5,-1029.5 "/>
<text text-anchor="middle" x="58" y="-1017.5" font-family="Helvetica,sans-Serif" font-size="10.00"> </text>
</a>
</g>
</g>
<!-- Node6&#45;&gt;Node5 -->
<g id="edge5" class="edge">
<title>Node6&#45;&gt;Node5</title>
<path fill="none" stroke="midnightblue" d="M58,-1000.38C58,-990.94 58,-981.2 58,-972.57"/>
<polygon fill="none" stroke="midnightblue" points="54.5,-1000.43 58,-1010.43 61.5,-1000.43 54.5,-1000.43"/>
</g>
</g>
</svg>
        <g id="navigator" transform="translate(0 0)" fill="#404254">
                <rect fill="#f2f5e9" fill-opacity="0.5" stroke="#606060" stroke-width=".5" x="0" y="0" width="60" height="60"/>
                <use id="zoomplus" xlink:href="#zoomPlus" x="17" y="9" onmousedown="handleZoom(evt,'in')"/>
                <use id="zoomminus" xlink:href="#zoomMin" x="42" y="9" onmousedown="handleZoom(evt,'out')"/>
                <use id="reset" xlink:href="#resetDef" x="30" y="36" onmousedown="handleReset()"/>
                <g id="arrowUp" xlink:href="#dirArrow" transform="translate(30 24)" onmousedown="handlePan(0,-1)">
                  <use xlink:href="#rim" fill="#404040">
                        <set attributeName="fill" to="#808080" begin="arrowUp.mouseover" end="arrowUp.mouseout"/>
                  </use>
                  <path fill="none" stroke="white" stroke-width="1.5" d="M0,-3.0v7 M-2.5,-0.5L0,-3.0L2.5,-0.5"/>
                </g>
                <g id="arrowRight" xlink:href="#dirArrow" transform="rotate(90) translate(36 -43)" onmousedown="handlePan(1,0)">
                  <use xlink:href="#rim" fill="#404040">
                        <set attributeName="fill" to="#808080" begin="arrowRight.mouseover" end="arrowRight.mouseout"/>
                  </use>
                  <path fill="none" stroke="white" stroke-width="1.5" d="M0,-3.0v7 M-2.5,-0.5L0,-3.0L2.5,-0.5"/>
                </g>
                <g id="arrowDown" xlink:href="#dirArrow" transform="rotate(180) translate(-30 -48)" onmousedown="handlePan(0,1)">
                  <use xlink:href="#rim" fill="#404040">
                        <set attributeName="fill" to="#808080" begin="arrowDown.mouseover" end="arrowDown.mouseout"/>
                  </use>
                  <path fill="none" stroke="white" stroke-width="1.5" d="M0,-3.0v7 M-2.5,-0.5L0,-3.0L2.5,-0.5"/>
                </g>
                <g id="arrowLeft" xlink:href="#dirArrow" transform="rotate(270) translate(-36 17)" onmousedown="handlePan(-1,0)">
                  <use xlink:href="#rim" fill="#404040">
                        <set attributeName="fill" to="#808080" begin="arrowLeft.mouseover" end="arrowLeft.mouseout"/>
                  </use>
                  <path fill="none" stroke="white" stroke-width="1.5" d="M0,-3.0v7 M-2.5,-0.5L0,-3.0L2.5,-0.5"/>
                </g>
        </g>
        <svg viewBox="0 0 15 15" width="100%" height="30px" preserveAspectRatio="xMaxYMin meet">
         <g id="arrow_out" transform="scale(0.3 0.3)">
          <a xlink:href="classparsing_1_1Parser__coll__graph_org.svg" target="_base">
           <rect id="button" ry="5" rx="5" y="6" x="6" height="38" width="38"
                fill="#f2f5e9" fill-opacity="0.5" stroke="#606060" stroke-width="1.0"/>
           <path id="arrow"
             d="M 11.500037,31.436501 C 11.940474,20.09759 22.043105,11.32322 32.158766,21.979434 L 37.068811,17.246167 C 37.068811,17.246167 37.088388,32 37.088388,32 L 22.160133,31.978069 C 22.160133,31.978069 26.997745,27.140456 26.997745,27.140456 C 18.528582,18.264221 13.291696,25.230495 11.500037,31.436501 z"
             style="fill:#404040;"/>
          </a>
         </g>
        </svg>
</svg>
