<?xml version="1.0" encoding="UTF-8" standalone="no"?>
<!DOCTYPE svg PUBLIC "-//W3C//DTD SVG 1.1//EN"
 "http://www.w3.org/Graphics/SVG/1.1/DTD/svg11.dtd">
<!-- Generated by graphviz version 2.43.0 (0)
 -->
<!-- Title: manet::QuadTree&lt; T &gt; Pages: 1 -->
<svg width="135pt" height="292pt"
 viewBox="0.00 0.00 135.00 292.00" xmlns="http://www.w3.org/2000/svg" xmlns:xlink="http://www.w3.org/1999/xlink">
<g id="graph0" class="graph" transform="scale(1 1) rotate(0) translate(4 288)">
<title>manet::QuadTree&lt; T &gt;</title>
<polygon fill="white" stroke="transparent" points="-4,4 -4,-288 131,-288 131,4 -4,4"/>
<!-- Node1 -->
<g id="node1" class="node">
<title>Node1</title>
<g id="a_node1"><a xlink:title=" ">
<polygon fill="#bfbfbf" stroke="black" points="2.5,-0.5 2.5,-156.5 124.5,-156.5 124.5,-0.5 2.5,-0.5"/>
<text text-anchor="middle" x="63.5" y="-144.5" font-family="Helvetica,sans-Serif" font-size="10.00">manet::QuadTree&lt; T &gt;</text>
<polyline fill="none" stroke="black" points="2.5,-137.5 124.5,-137.5 "/>
<text text-anchor="start" x="10.5" y="-125.5" font-family="Helvetica,sans-Serif" font-size="10.00"># root</text>
<polyline fill="none" stroke="black" points="2.5,-118.5 124.5,-118.5 "/>
<text text-anchor="start" x="10.5" y="-106.5" font-family="Helvetica,sans-Serif" font-size="10.00">+ QuadTree()</text>
<text text-anchor="start" x="10.5" y="-95.5" font-family="Helvetica,sans-Serif" font-size="10.00">+ ~QuadTree()</text>
<text text-anchor="start" x="10.5" y="-84.5" font-family="Helvetica,sans-Serif" font-size="10.00">+ getRoot()</text>
<text text-anchor="start" x="10.5" y="-73.5" font-family="Helvetica,sans-Serif" font-size="10.00">+ getRoot()</text>
<text text-anchor="start" x="10.5" y="-62.5" font-family="Helvetica,sans-Serif" font-size="10.00">+ insert()</text>
<text text-anchor="start" x="10.5" y="-51.5" font-family="Helvetica,sans-Serif" font-size="10.00">+ printAll()</text>
<text text-anchor="start" x="10.5" y="-40.5" font-family="Helvetica,sans-Serif" font-size="10.00">+ putPointsInRadius()</text>
<text text-anchor="start" x="10.5" y="-29.5" font-family="Helvetica,sans-Serif" font-size="10.00">+ putPointsInRange()</text>
<text text-anchor="start" x="10.5" y="-18.5" font-family="Helvetica,sans-Serif" font-size="10.00">+ setAcceptPlacement()</text>
<text text-anchor="start" x="10.5" y="-7.5" font-family="Helvetica,sans-Serif" font-size="10.00">+ traverse()</text>
</a>
</g>
</g>
<!-- Node2 -->
<g id="node2" class="node">
<title>Node2</title>
<g id="a_node2"><a xlink:href="classmanet_1_1AcceptPlacement.html" target="_top" xlink:title=" ">
<polygon fill="white" stroke="black" points="0,-204.5 0,-283.5 127,-283.5 127,-204.5 0,-204.5"/>
<text text-anchor="middle" x="63.5" y="-271.5" font-family="Helvetica,sans-Serif" font-size="10.00">manet::AcceptPlacement</text>
<polyline fill="none" stroke="black" points="0,-264.5 127,-264.5 "/>
<text text-anchor="middle" x="63.5" y="-252.5" font-family="Helvetica,sans-Serif" font-size="10.00"> </text>
<polyline fill="none" stroke="black" points="0,-245.5 127,-245.5 "/>
<text text-anchor="start" x="8" y="-233.5" font-family="Helvetica,sans-Serif" font-size="10.00">+ AcceptPlacement()</text>
<text text-anchor="start" x="8" y="-222.5" font-family="Helvetica,sans-Serif" font-size="10.00">+ ~AcceptPlacement()</text>
<text text-anchor="start" x="8" y="-211.5" font-family="Helvetica,sans-Serif" font-size="10.00">+ operator()()</text>
</a>
</g>
</g>
<!-- Node2&#45;&gt;Node1 -->
<g id="edge1" class="edge">
<title>Node2&#45;&gt;Node1</title>
<path fill="none" stroke="#404040" d="M63.5,-204.25C63.5,-193.38 63.5,-181.08 63.5,-168.55"/>
<polygon fill="none" stroke="#404040" points="63.5,-168.51 59.5,-162.51 63.5,-156.51 67.5,-162.51 63.5,-168.51"/>
<text text-anchor="middle" x="79" y="-178" font-family="Helvetica,sans-Serif" font-size="10.00"> #accP</text>
</g>
</g>
</svg>
