<?xml version="1.0" encoding="UTF-8" standalone="no"?>
<!DOCTYPE svg PUBLIC "-//W3C//DTD SVG 1.1//EN"
 "http://www.w3.org/Graphics/SVG/1.1/DTD/svg11.dtd">
<!-- Generated by graphviz version 2.43.0 (0)
 -->
<!-- Title: manet::AcceptSparseNeighbourhood Pages: 1 -->
<svg width="268pt" height="226pt"
 viewBox="0.00 0.00 267.50 226.00" xmlns="http://www.w3.org/2000/svg" xmlns:xlink="http://www.w3.org/1999/xlink">
<g id="graph0" class="graph" transform="scale(1 1) rotate(0) translate(4 222)">
<title>manet::AcceptSparseNeighbourhood</title>
<polygon fill="white" stroke="transparent" points="-4,4 -4,-222 263.5,-222 263.5,4 -4,4"/>
<!-- Node1 -->
<g id="node1" class="node">
<title>Node1</title>
<g id="a_node1"><a xlink:title=" ">
<polygon fill="#bfbfbf" stroke="black" points="44.5,-0.5 44.5,-90.5 220.5,-90.5 220.5,-0.5 44.5,-0.5"/>
<text text-anchor="middle" x="132.5" y="-78.5" font-family="Helvetica,sans-Serif" font-size="10.00">manet::AcceptSparseNeighbourhood</text>
<polyline fill="none" stroke="black" points="44.5,-71.5 220.5,-71.5 "/>
<text text-anchor="start" x="52.5" y="-59.5" font-family="Helvetica,sans-Serif" font-size="10.00"># radius</text>
<text text-anchor="start" x="52.5" y="-48.5" font-family="Helvetica,sans-Serif" font-size="10.00"># maxNeighbours</text>
<polyline fill="none" stroke="black" points="44.5,-41.5 220.5,-41.5 "/>
<text text-anchor="start" x="52.5" y="-29.5" font-family="Helvetica,sans-Serif" font-size="10.00">+ AcceptSparseNeighbourhood()</text>
<text text-anchor="start" x="52.5" y="-18.5" font-family="Helvetica,sans-Serif" font-size="10.00">+ ~AcceptSparseNeighbourhood()</text>
<text text-anchor="start" x="52.5" y="-7.5" font-family="Helvetica,sans-Serif" font-size="10.00">+ operator()()</text>
</a>
</g>
</g>
<!-- Node2 -->
<g id="node2" class="node">
<title>Node2</title>
<g id="a_node2"><a xlink:href="classmanet_1_1AcceptPlacement.html" target="_top" xlink:title=" ">
<polygon fill="white" stroke="black" points="0,-138.5 0,-217.5 127,-217.5 127,-138.5 0,-138.5"/>
<text text-anchor="middle" x="63.5" y="-205.5" font-family="Helvetica,sans-Serif" font-size="10.00">manet::AcceptPlacement</text>
<polyline fill="none" stroke="black" points="0,-198.5 127,-198.5 "/>
<text text-anchor="middle" x="63.5" y="-186.5" font-family="Helvetica,sans-Serif" font-size="10.00"> </text>
<polyline fill="none" stroke="black" points="0,-179.5 127,-179.5 "/>
<text text-anchor="start" x="8" y="-167.5" font-family="Helvetica,sans-Serif" font-size="10.00">+ AcceptPlacement()</text>
<text text-anchor="start" x="8" y="-156.5" font-family="Helvetica,sans-Serif" font-size="10.00">+ ~AcceptPlacement()</text>
<text text-anchor="start" x="8" y="-145.5" font-family="Helvetica,sans-Serif" font-size="10.00">+ operator()()</text>
</a>
</g>
</g>
<!-- Node2&#45;&gt;Node1 -->
<g id="edge1" class="edge">
<title>Node2&#45;&gt;Node1</title>
<path fill="none" stroke="midnightblue" d="M88.74,-129.26C95.37,-116.72 102.5,-103.24 109.04,-90.88"/>
<polygon fill="none" stroke="midnightblue" points="85.6,-127.72 84.02,-138.2 91.78,-130.99 85.6,-127.72"/>
</g>
<!-- Node3 -->
<g id="node3" class="node">
<title>Node3</title>
<g id="a_node3"><a xlink:title=" ">
<polygon fill="white" stroke="#bfbfbf" points="145.5,-144 145.5,-212 259.5,-212 259.5,-144 145.5,-144"/>
<text text-anchor="start" x="153.5" y="-200" font-family="Helvetica,sans-Serif" font-size="10.00">std::vector&lt; std::pair</text>
<text text-anchor="middle" x="202.5" y="-189" font-family="Helvetica,sans-Serif" font-size="10.00">&lt; manet::point, int &gt; &gt;</text>
<polyline fill="none" stroke="#bfbfbf" points="145.5,-182 259.5,-182 "/>
<text text-anchor="start" x="153.5" y="-170" font-family="Helvetica,sans-Serif" font-size="10.00">+ elements</text>
<polyline fill="none" stroke="#bfbfbf" points="145.5,-163 259.5,-163 "/>
<text text-anchor="middle" x="202.5" y="-151" font-family="Helvetica,sans-Serif" font-size="10.00"> </text>
</a>
</g>
</g>
<!-- Node3&#45;&gt;Node1 -->
<g id="edge2" class="edge">
<title>Node3&#45;&gt;Node1</title>
<path fill="none" stroke="#404040" d="M184.65,-143.73C177.75,-130.85 169.66,-115.77 161.93,-101.37"/>
<polygon fill="none" stroke="#404040" points="161.8,-101.12 155.44,-97.73 156.13,-90.55 162.49,-93.95 161.8,-101.12"/>
<text text-anchor="middle" x="179.5" y="-112" font-family="Helvetica,sans-Serif" font-size="10.00"> #D</text>
</g>
</g>
</svg>
