<?xml version="1.0" encoding="UTF-8" standalone="no"?>
<!DOCTYPE svg PUBLIC "-//W3C//DTD SVG 1.1//EN"
 "http://www.w3.org/Graphics/SVG/1.1/DTD/svg11.dtd">
<!-- Generated by graphviz version 2.43.0 (0)
 -->
<!-- Title: Graphical Class Hierarchy Pages: 1 -->
<svg width="354pt" height="66pt"
 viewBox="0.00 0.00 354.00 66.00" xmlns="http://www.w3.org/2000/svg" xmlns:xlink="http://www.w3.org/1999/xlink">
<g id="graph0" class="graph" transform="scale(1 1) rotate(0) translate(4 62)">
<title>Graphical Class Hierarchy</title>
<polygon fill="white" stroke="transparent" points="-4,4 -4,-62 350,-62 350,4 -4,4"/>
<!-- Node4 -->
<g id="node1" class="node">
<title>Node4</title>
<g id="a_node1"><a xlink:title=" ">
<polygon fill="white" stroke="#bfbfbf" points="0,-19.5 0,-38.5 78,-38.5 78,-19.5 0,-19.5"/>
<text text-anchor="middle" x="39" y="-26.5" font-family="Helvetica,sans-Serif" font-size="10.00">std::exception</text>
</a>
</g>
</g>
<!-- Node5 -->
<g id="node2" class="node">
<title>Node5</title>
<g id="a_node2"><a xlink:title=" ">
<polygon fill="white" stroke="#bfbfbf" points="114,-19.5 114,-38.5 207,-38.5 207,-19.5 114,-19.5"/>
<text text-anchor="middle" x="160.5" y="-26.5" font-family="Helvetica,sans-Serif" font-size="10.00">std::runtime_error</text>
</a>
</g>
</g>
<!-- Node4&#45;&gt;Node5 -->
<g id="edge1" class="edge">
<title>Node4&#45;&gt;Node5</title>
<path fill="none" stroke="midnightblue" d="M88.23,-29C96.66,-29 105.42,-29 113.79,-29"/>
<polygon fill="midnightblue" stroke="midnightblue" points="88.14,-25.5 78.14,-29 88.14,-32.5 88.14,-25.5"/>
</g>
<!-- Node0 -->
<g id="node3" class="node">
<title>Node0</title>
<g id="a_node3"><a xlink:href="classapp__exception.html" target="_top" xlink:title=" ">
<polygon fill="white" stroke="black" points="254.5,-38.5 254.5,-57.5 334.5,-57.5 334.5,-38.5 254.5,-38.5"/>
<text text-anchor="middle" x="294.5" y="-45.5" font-family="Helvetica,sans-Serif" font-size="10.00">app_exception</text>
</a>
</g>
</g>
<!-- Node5&#45;&gt;Node0 -->
<g id="edge2" class="edge">
<title>Node5&#45;&gt;Node0</title>
<path fill="none" stroke="midnightblue" d="M217.55,-37.07C229.95,-38.85 242.82,-40.71 254.37,-42.37"/>
<polygon fill="midnightblue" stroke="midnightblue" points="217.69,-33.55 207.3,-35.59 216.7,-40.48 217.69,-33.55"/>
</g>
<!-- Node7 -->
<g id="node4" class="node">
<title>Node7</title>
<g id="a_node4"><a xlink:href="classparsing_1_1parse__error.html" target="_top" xlink:title=" ">
<polygon fill="white" stroke="black" points="243,-0.5 243,-19.5 346,-19.5 346,-0.5 243,-0.5"/>
<text text-anchor="middle" x="294.5" y="-7.5" font-family="Helvetica,sans-Serif" font-size="10.00">parsing::parse_error</text>
</a>
</g>
</g>
<!-- Node5&#45;&gt;Node7 -->
<g id="edge3" class="edge">
<title>Node5&#45;&gt;Node7</title>
<path fill="none" stroke="midnightblue" d="M217.43,-20.95C225.86,-19.74 234.51,-18.49 242.82,-17.29"/>
<polygon fill="midnightblue" stroke="midnightblue" points="216.7,-17.52 207.3,-22.41 217.69,-24.45 216.7,-17.52"/>
</g>
</g>
</svg>
