<?xml version="1.0" encoding="UTF-8" standalone="no"?>
<!DOCTYPE svg PUBLIC "-//W3C//DTD SVG 1.1//EN"
 "http://www.w3.org/Graphics/SVG/1.1/DTD/svg11.dtd">
<!-- Generated by graphviz version 2.43.0 (0)
 -->
<!-- Title: manet::QuadTreeNode&lt; T &gt; Pages: 1 -->
<!--zoomable 573 -->
<svg id="main" version="1.1" xmlns="http://www.w3.org/2000/svg" xmlns:xlink="http://www.w3.org/1999/xlink" xml:space="preserve" onload="init(evt)">
<style type="text/css"><![CDATA[
.edge:hover path { stroke: red; }
.edge:hover polygon { stroke: red; fill: red; }
]]></style>
<script type="text/javascript"><![CDATA[
var edges = document.getElementsByTagName('g');
if (edges && edges.length) {
  for (var i=0;i<edges.length;i++) {
    if (edges[i].id.substr(0,4)=='edge') {
      edges[i].setAttribute('class','edge');
    }
  }
}
]]></script>
        <defs>
                <circle id="rim" cx="0" cy="0" r="7"/>
                <circle id="rim2" cx="0" cy="0" r="3.5"/>
                <g id="zoomPlus">
                        <use xlink:href="#rim" fill="#404040">
                                <set attributeName="fill" to="#808080" begin="zoomplus.mouseover" end="zoomplus.mouseout"/>
                        </use>
                        <path d="M-4,0h8M0,-4v8" fill="none" stroke="white" stroke-width="1.5" pointer-events="none"/>
                </g>
                <g id="zoomMin">
                        <use xlink:href="#rim" fill="#404040">
                                <set attributeName="fill" to="#808080" begin="zoomminus.mouseover" end="zoomminus.mouseout"/>
                        </use>
                        <path d="M-4,0h8" fill="none" stroke="white" stroke-width="1.5" pointer-events="none"/>
                </g>
                <g id="dirArrow">
                        <path fill="none" stroke="white" stroke-width="1.5" d="M0,-3.0v7 M-2.5,-0.5L0,-3.0L2.5,-0.5"/>
                </g>
               <g id="resetDef">
                       <use xlink:href="#rim2" fill="#404040">
                               <set attributeName="fill" to="#808080" begin="reset.mouseover" end="reset.mouseout"/>
                       </use>
               </g>
        </defs>

<script type="text/javascript">
var viewWidth = 244;
var viewHeight = 573;
var sectionId = 'dynsection-0';
</script>
<script xlink:href="svgpan.js"/>
<svg id="graph" class="graph">
<g id="viewport">
<title>manet::QuadTreeNode&lt; T &gt;</title>
<polygon fill="white" stroke="transparent" points="-4,4 -4,-569 239.5,-569 239.5,4 -4,4"/>
<!-- Node1 -->
<g id="node1" class="node">
<title>Node1</title>
<g id="a_node1"><a xlink:title=" ">
<polygon fill="#bfbfbf" stroke="black" points="10,-0.5 10,-211.5 150,-211.5 150,-0.5 10,-0.5"/>
<text text-anchor="middle" x="80" y="-199.5" font-family="Helvetica,sans-Serif" font-size="10.00">manet::QuadTreeNode&lt; T &gt;</text>
<polyline fill="none" stroke="black" points="10,-192.5 150,-192.5 "/>
<text text-anchor="start" x="18" y="-180.5" font-family="Helvetica,sans-Serif" font-size="10.00"># capacity</text>
<polyline fill="none" stroke="black" points="10,-173.5 150,-173.5 "/>
<text text-anchor="start" x="18" y="-161.5" font-family="Helvetica,sans-Serif" font-size="10.00">+ QuadTreeNode()</text>
<text text-anchor="start" x="18" y="-150.5" font-family="Helvetica,sans-Serif" font-size="10.00">+ QuadTreeNode()</text>
<text text-anchor="start" x="18" y="-139.5" font-family="Helvetica,sans-Serif" font-size="10.00">+ ~QuadTreeNode()</text>
<text text-anchor="start" x="18" y="-128.5" font-family="Helvetica,sans-Serif" font-size="10.00">+ insert()</text>
<text text-anchor="start" x="18" y="-117.5" font-family="Helvetica,sans-Serif" font-size="10.00">+ insert()</text>
<text text-anchor="start" x="18" y="-106.5" font-family="Helvetica,sans-Serif" font-size="10.00">+ intersects()</text>
<text text-anchor="start" x="18" y="-95.5" font-family="Helvetica,sans-Serif" font-size="10.00">+ intersects()</text>
<text text-anchor="start" x="18" y="-84.5" font-family="Helvetica,sans-Serif" font-size="10.00">+ isLeaf()</text>
<text text-anchor="start" x="18" y="-73.5" font-family="Helvetica,sans-Serif" font-size="10.00">+ printAll()</text>
<text text-anchor="start" x="18" y="-62.5" font-family="Helvetica,sans-Serif" font-size="10.00">+ printData()</text>
<text text-anchor="start" x="18" y="-51.5" font-family="Helvetica,sans-Serif" font-size="10.00">+ putAllPoints()</text>
<text text-anchor="start" x="18" y="-40.5" font-family="Helvetica,sans-Serif" font-size="10.00">+ putPointsInRadius()</text>
<text text-anchor="start" x="18" y="-29.5" font-family="Helvetica,sans-Serif" font-size="10.00">+ putPointsInRange()</text>
<text text-anchor="start" x="18" y="-18.5" font-family="Helvetica,sans-Serif" font-size="10.00">+ split()</text>
<text text-anchor="start" x="18" y="-7.5" font-family="Helvetica,sans-Serif" font-size="10.00">+ traverse()</text>
</a>
</g>
</g>
<!-- Node1&#45;&gt;Node1 -->
<g id="edge2" class="edge">
<title>Node1&#45;&gt;Node1</title>
<path fill="none" stroke="#404040" d="M150.07,-127.88C160.75,-124.54 168,-117.25 168,-106 168,-99.14 165.31,-93.76 160.79,-89.84"/>
<polygon fill="none" stroke="#404040" points="160.66,-89.77 153.48,-90.47 150.07,-84.12 157.25,-83.41 160.66,-89.77"/>
<text text-anchor="middle" x="179.5" y="-120" font-family="Helvetica,sans-Serif" font-size="10.00"> #NE</text>
<text text-anchor="middle" x="179.5" y="-109" font-family="Helvetica,sans-Serif" font-size="10.00">#NW</text>
<text text-anchor="middle" x="179.5" y="-98" font-family="Helvetica,sans-Serif" font-size="10.00">#SE</text>
<text text-anchor="middle" x="179.5" y="-87" font-family="Helvetica,sans-Serif" font-size="10.00">#SW</text>
</g>
<!-- Node2 -->
<g id="node2" class="node">
<title>Node2</title>
<g id="a_node2"><a xlink:title=" ">
<polygon fill="white" stroke="#bfbfbf" points="0,-314.5 0,-382.5 110,-382.5 110,-314.5 0,-314.5"/>
<text text-anchor="start" x="8" y="-370.5" font-family="Helvetica,sans-Serif" font-size="10.00">std::vector&lt; std::pair</text>
<text text-anchor="middle" x="55" y="-359.5" font-family="Helvetica,sans-Serif" font-size="10.00">&lt; manet::point, T &gt; &gt;</text>
<polyline fill="none" stroke="#bfbfbf" points="0,-352.5 110,-352.5 "/>
<text text-anchor="start" x="8" y="-340.5" font-family="Helvetica,sans-Serif" font-size="10.00">+ elements</text>
<polyline fill="none" stroke="#bfbfbf" points="0,-333.5 110,-333.5 "/>
<text text-anchor="middle" x="55" y="-321.5" font-family="Helvetica,sans-Serif" font-size="10.00"> </text>
</a>
</g>
</g>
<!-- Node2&#45;&gt;Node1 -->
<g id="edge1" class="edge">
<title>Node2&#45;&gt;Node1</title>
<path fill="none" stroke="#404040" d="M58.45,-314.31C60.92,-290.56 64.4,-257.03 67.85,-223.85"/>
<polygon fill="none" stroke="#404040" points="67.88,-223.59 64.52,-217.21 69.12,-211.66 72.48,-218.04 67.88,-223.59"/>
<text text-anchor="middle" x="81" y="-233" font-family="Helvetica,sans-Serif" font-size="10.00"> #data</text>
</g>
<!-- Node3 -->
<g id="node3" class="node">
<title>Node3</title>
<g id="a_node3"><a xlink:href="classmanet_1_1BoundingBox.html" target="_top" xlink:title=" ">
<polygon fill="white" stroke="black" points="128.5,-259.5 128.5,-437.5 235.5,-437.5 235.5,-259.5 128.5,-259.5"/>
<text text-anchor="middle" x="182" y="-425.5" font-family="Helvetica,sans-Serif" font-size="10.00">manet::BoundingBox</text>
<polyline fill="none" stroke="black" points="128.5,-418.5 235.5,-418.5 "/>
<text text-anchor="start" x="136.5" y="-406.5" font-family="Helvetica,sans-Serif" font-size="10.00"># x0</text>
<text text-anchor="start" x="136.5" y="-395.5" font-family="Helvetica,sans-Serif" font-size="10.00"># x1</text>
<text text-anchor="start" x="136.5" y="-384.5" font-family="Helvetica,sans-Serif" font-size="10.00"># y0</text>
<text text-anchor="start" x="136.5" y="-373.5" font-family="Helvetica,sans-Serif" font-size="10.00"># y1</text>
<polyline fill="none" stroke="black" points="128.5,-366.5 235.5,-366.5 "/>
<text text-anchor="start" x="136.5" y="-354.5" font-family="Helvetica,sans-Serif" font-size="10.00">+ BoundingBox()</text>
<text text-anchor="start" x="136.5" y="-343.5" font-family="Helvetica,sans-Serif" font-size="10.00">+ BoundingBox()</text>
<text text-anchor="start" x="136.5" y="-332.5" font-family="Helvetica,sans-Serif" font-size="10.00">+ contains()</text>
<text text-anchor="start" x="136.5" y="-321.5" font-family="Helvetica,sans-Serif" font-size="10.00">+ contains()</text>
<text text-anchor="start" x="136.5" y="-310.5" font-family="Helvetica,sans-Serif" font-size="10.00">+ contains()</text>
<text text-anchor="start" x="136.5" y="-299.5" font-family="Helvetica,sans-Serif" font-size="10.00">+ BoundingBox()</text>
<text text-anchor="start" x="136.5" y="-288.5" font-family="Helvetica,sans-Serif" font-size="10.00">+ BoundingBox()</text>
<text text-anchor="start" x="136.5" y="-277.5" font-family="Helvetica,sans-Serif" font-size="10.00">+ contains()</text>
<text text-anchor="start" x="136.5" y="-266.5" font-family="Helvetica,sans-Serif" font-size="10.00">+ contains()</text>
</a>
</g>
</g>
<!-- Node3&#45;&gt;Node1 -->
<g id="edge3" class="edge">
<title>Node3&#45;&gt;Node1</title>
<path fill="none" stroke="#404040" d="M144.6,-259.31C139.59,-247.51 134.4,-235.26 129.23,-223.07"/>
<polygon fill="none" stroke="#404040" points="129.18,-222.95 123.15,-218.99 124.49,-211.9 130.52,-215.87 129.18,-222.95"/>
<text text-anchor="middle" x="158.5" y="-233" font-family="Helvetica,sans-Serif" font-size="10.00"> #boundary</text>
</g>
<!-- Node4 -->
<g id="node4" class="node">
<title>Node4</title>
<g id="a_node4"><a xlink:href="classmanet_1_1point.html" target="_top" xlink:title=" ">
<polygon fill="white" stroke="black" points="146.5,-496.5 146.5,-564.5 217.5,-564.5 217.5,-496.5 146.5,-496.5"/>
<text text-anchor="middle" x="182" y="-552.5" font-family="Helvetica,sans-Serif" font-size="10.00">manet::point</text>
<polyline fill="none" stroke="black" points="146.5,-545.5 217.5,-545.5 "/>
<text text-anchor="start" x="154.5" y="-533.5" font-family="Helvetica,sans-Serif" font-size="10.00">+ x</text>
<text text-anchor="start" x="154.5" y="-522.5" font-family="Helvetica,sans-Serif" font-size="10.00">+ y</text>
<polyline fill="none" stroke="black" points="146.5,-515.5 217.5,-515.5 "/>
<text text-anchor="start" x="154.5" y="-503.5" font-family="Helvetica,sans-Serif" font-size="10.00">+ point()</text>
</a>
</g>
</g>
<!-- Node4&#45;&gt;Node3 -->
<g id="edge4" class="edge">
<title>Node4&#45;&gt;Node3</title>
<path fill="none" stroke="#404040" d="M182,-496.49C182,-483.09 182,-466.84 182,-450.09"/>
<polygon fill="none" stroke="#404040" points="182,-449.84 178,-443.84 182,-437.84 186,-443.84 182,-449.84"/>
<text text-anchor="middle" x="189.5" y="-470" font-family="Helvetica,sans-Serif" font-size="10.00"> +a</text>
<text text-anchor="middle" x="189.5" y="-459" font-family="Helvetica,sans-Serif" font-size="10.00">+b</text>
</g>
</g>
</svg>
        <g id="navigator" transform="translate(0 0)" fill="#404254">
                <rect fill="#f2f5e9" fill-opacity="0.5" stroke="#606060" stroke-width=".5" x="0" y="0" width="60" height="60"/>
                <use id="zoomplus" xlink:href="#zoomPlus" x="17" y="9" onmousedown="handleZoom(evt,'in')"/>
                <use id="zoomminus" xlink:href="#zoomMin" x="42" y="9" onmousedown="handleZoom(evt,'out')"/>
                <use id="reset" xlink:href="#resetDef" x="30" y="36" onmousedown="handleReset()"/>
                <g id="arrowUp" xlink:href="#dirArrow" transform="translate(30 24)" onmousedown="handlePan(0,-1)">
                  <use xlink:href="#rim" fill="#404040">
                        <set attributeName="fill" to="#808080" begin="arrowUp.mouseover" end="arrowUp.mouseout"/>
                  </use>
                  <path fill="none" stroke="white" stroke-width="1.5" d="M0,-3.0v7 M-2.5,-0.5L0,-3.0L2.5,-0.5"/>
                </g>
                <g id="arrowRight" xlink:href="#dirArrow" transform="rotate(90) translate(36 -43)" onmousedown="handlePan(1,0)">
                  <use xlink:href="#rim" fill="#404040">
                        <set attributeName="fill" to="#808080" begin="arrowRight.mouseover" end="arrowRight.mouseout"/>
                  </use>
                  <path fill="none" stroke="white" stroke-width="1.5" d="M0,-3.0v7 M-2.5,-0.5L0,-3.0L2.5,-0.5"/>
                </g>
                <g id="arrowDown" xlink:href="#dirArrow" transform="rotate(180) translate(-30 -48)" onmousedown="handlePan(0,1)">
                  <use xlink:href="#rim" fill="#404040">
                        <set attributeName="fill" to="#808080" begin="arrowDown.mouseover" end="arrowDown.mouseout"/>
                  </use>
                  <path fill="none" stroke="white" stroke-width="1.5" d="M0,-3.0v7 M-2.5,-0.5L0,-3.0L2.5,-0.5"/>
                </g>
                <g id="arrowLeft" xlink:href="#dirArrow" transform="rotate(270) translate(-36 17)" onmousedown="handlePan(-1,0)">
                  <use xlink:href="#rim" fill="#404040">
                        <set attributeName="fill" to="#808080" begin="arrowLeft.mouseover" end="arrowLeft.mouseout"/>
                  </use>
                  <path fill="none" stroke="white" stroke-width="1.5" d="M0,-3.0v7 M-2.5,-0.5L0,-3.0L2.5,-0.5"/>
                </g>
        </g>
        <svg viewBox="0 0 15 15" width="100%" height="30px" preserveAspectRatio="xMaxYMin meet">
         <g id="arrow_out" transform="scale(0.3 0.3)">
          <a xlink:href="classmanet_1_1QuadTreeNode__coll__graph_org.svg" target="_base">
           <rect id="button" ry="5" rx="5" y="6" x="6" height="38" width="38"
                fill="#f2f5e9" fill-opacity="0.5" stroke="#606060" stroke-width="1.0"/>
           <path id="arrow"
             d="M 11.500037,31.436501 C 11.940474,20.09759 22.043105,11.32322 32.158766,21.979434 L 37.068811,17.246167 C 37.068811,17.246167 37.088388,32 37.088388,32 L 22.160133,31.978069 C 22.160133,31.978069 26.997745,27.140456 26.997745,27.140456 C 18.528582,18.264221 13.291696,25.230495 11.500037,31.436501 z"
             style="fill:#404040;"/>
          </a>
         </g>
        </svg>
</svg>
