<?xml version="1.0" encoding="UTF-8" standalone="no"?>
<!DOCTYPE svg PUBLIC "-//W3C//DTD SVG 1.1//EN"
 "http://www.w3.org/Graphics/SVG/1.1/DTD/svg11.dtd">
<!-- Generated by graphviz version 2.43.0 (0)
 -->
<!-- Title: parsing::TokenList Pages: 1 -->
<svg width="112pt" height="839pt"
 viewBox="0.00 0.00 112.00 839.00" xmlns="http://www.w3.org/2000/svg" xmlns:xlink="http://www.w3.org/1999/xlink">
<g id="graph0" class="graph" transform="scale(1 1) rotate(0) translate(4 835)">
<title>parsing::TokenList</title>
<polygon fill="white" stroke="transparent" points="-4,4 -4,-835 108,-835 108,4 -4,4"/>
<!-- Node1 -->
<g id="node1" class="node">
<title>Node1</title>
<g id="a_node1"><a xlink:title=" ">
<polygon fill="#bfbfbf" stroke="black" points="4,-0.5 4,-167.5 100,-167.5 100,-0.5 4,-0.5"/>
<text text-anchor="middle" x="52" y="-155.5" font-family="Helvetica,sans-Serif" font-size="10.00">parsing::TokenList</text>
<polyline fill="none" stroke="black" points="4,-148.5 100,-148.5 "/>
<text text-anchor="middle" x="52" y="-136.5" font-family="Helvetica,sans-Serif" font-size="10.00"> </text>
<polyline fill="none" stroke="black" points="4,-129.5 100,-129.5 "/>
<text text-anchor="start" x="12" y="-117.5" font-family="Helvetica,sans-Serif" font-size="10.00">+ ~TokenList()</text>
<text text-anchor="start" x="12" y="-106.5" font-family="Helvetica,sans-Serif" font-size="10.00">+ TokenList()</text>
<text text-anchor="start" x="12" y="-95.5" font-family="Helvetica,sans-Serif" font-size="10.00">+ TokenList()</text>
<text text-anchor="start" x="12" y="-84.5" font-family="Helvetica,sans-Serif" font-size="10.00">+ advance()</text>
<text text-anchor="start" x="12" y="-73.5" font-family="Helvetica,sans-Serif" font-size="10.00">+ begin()</text>
<text text-anchor="start" x="12" y="-62.5" font-family="Helvetica,sans-Serif" font-size="10.00">+ begin()</text>
<text text-anchor="start" x="12" y="-51.5" font-family="Helvetica,sans-Serif" font-size="10.00">+ end()</text>
<text text-anchor="start" x="12" y="-40.5" font-family="Helvetica,sans-Serif" font-size="10.00">+ end()</text>
<text text-anchor="start" x="12" y="-29.5" font-family="Helvetica,sans-Serif" font-size="10.00">+ isBool()</text>
<text text-anchor="start" x="12" y="-18.5" font-family="Helvetica,sans-Serif" font-size="10.00">+ isChar()</text>
<text text-anchor="start" x="12" y="-7.5" font-family="Helvetica,sans-Serif" font-size="10.00">and 20 more...</text>
</a>
</g>
</g>
<!-- Node2 -->
<g id="node2" class="node">
<title>Node2</title>
<g id="a_node2"><a xlink:title=" ">
<polygon fill="white" stroke="#bfbfbf" points="0,-226.5 0,-294.5 104,-294.5 104,-226.5 0,-226.5"/>
<text text-anchor="start" x="8" y="-282.5" font-family="Helvetica,sans-Serif" font-size="10.00">std::vector&lt; parsing</text>
<text text-anchor="middle" x="52" y="-271.5" font-family="Helvetica,sans-Serif" font-size="10.00">::Token &gt;</text>
<polyline fill="none" stroke="#bfbfbf" points="0,-264.5 104,-264.5 "/>
<text text-anchor="middle" x="52" y="-252.5" font-family="Helvetica,sans-Serif" font-size="10.00"> </text>
<polyline fill="none" stroke="#bfbfbf" points="0,-245.5 104,-245.5 "/>
<text text-anchor="middle" x="52" y="-233.5" font-family="Helvetica,sans-Serif" font-size="10.00"> </text>
</a>
</g>
</g>
<!-- Node2&#45;&gt;Node1 -->
<g id="edge1" class="edge">
<title>Node2&#45;&gt;Node1</title>
<path fill="none" stroke="#404040" d="M52,-226.27C52,-212.82 52,-196.55 52,-179.9"/>
<polygon fill="none" stroke="#404040" points="52,-179.75 48,-173.75 52,-167.75 56,-173.75 52,-179.75"/>
<text text-anchor="middle" x="72" y="-200" font-family="Helvetica,sans-Serif" font-size="10.00"> +current</text>
<text text-anchor="middle" x="72" y="-189" font-family="Helvetica,sans-Serif" font-size="10.00">+toks</text>
</g>
<!-- Node3 -->
<g id="node3" class="node">
<title>Node3</title>
<g id="a_node3"><a xlink:href="classparsing_1_1Token.html" target="_top" xlink:title=" ">
<polygon fill="white" stroke="black" points="3,-342.5 3,-619.5 101,-619.5 101,-342.5 3,-342.5"/>
<text text-anchor="middle" x="52" y="-607.5" font-family="Helvetica,sans-Serif" font-size="10.00">parsing::Token</text>
<polyline fill="none" stroke="black" points="3,-600.5 101,-600.5 "/>
<text text-anchor="start" x="11" y="-588.5" font-family="Helvetica,sans-Serif" font-size="10.00">+ type</text>
<text text-anchor="start" x="11" y="-577.5" font-family="Helvetica,sans-Serif" font-size="10.00">+ b</text>
<text text-anchor="start" x="11" y="-566.5" font-family="Helvetica,sans-Serif" font-size="10.00">+ c</text>
<text text-anchor="start" x="11" y="-555.5" font-family="Helvetica,sans-Serif" font-size="10.00">+ d</text>
<text text-anchor="start" x="11" y="-544.5" font-family="Helvetica,sans-Serif" font-size="10.00">+ i</text>
<text text-anchor="start" x="11" y="-533.5" font-family="Helvetica,sans-Serif" font-size="10.00">+ end</text>
<text text-anchor="start" x="11" y="-522.5" font-family="Helvetica,sans-Serif" font-size="10.00">+ start</text>
<polyline fill="none" stroke="black" points="3,-515.5 101,-515.5 "/>
<text text-anchor="start" x="11" y="-503.5" font-family="Helvetica,sans-Serif" font-size="10.00">+ ~Token()</text>
<text text-anchor="start" x="11" y="-492.5" font-family="Helvetica,sans-Serif" font-size="10.00">+ Token()</text>
<text text-anchor="start" x="11" y="-481.5" font-family="Helvetica,sans-Serif" font-size="10.00">+ Token()</text>
<text text-anchor="start" x="11" y="-470.5" font-family="Helvetica,sans-Serif" font-size="10.00">+ getLineNumber()</text>
<text text-anchor="start" x="11" y="-459.5" font-family="Helvetica,sans-Serif" font-size="10.00">+ getType()</text>
<text text-anchor="start" x="11" y="-448.5" font-family="Helvetica,sans-Serif" font-size="10.00">+ operator=()</text>
<text text-anchor="start" x="11" y="-437.5" font-family="Helvetica,sans-Serif" font-size="10.00">+ set()</text>
<text text-anchor="start" x="11" y="-426.5" font-family="Helvetica,sans-Serif" font-size="10.00">+ set()</text>
<text text-anchor="start" x="11" y="-415.5" font-family="Helvetica,sans-Serif" font-size="10.00">+ set()</text>
<text text-anchor="start" x="11" y="-404.5" font-family="Helvetica,sans-Serif" font-size="10.00">+ set()</text>
<text text-anchor="start" x="11" y="-393.5" font-family="Helvetica,sans-Serif" font-size="10.00">+ set()</text>
<text text-anchor="start" x="11" y="-382.5" font-family="Helvetica,sans-Serif" font-size="10.00">+ set()</text>
<text text-anchor="start" x="11" y="-371.5" font-family="Helvetica,sans-Serif" font-size="10.00">+ setLineNum()</text>
<text text-anchor="start" x="11" y="-360.5" font-family="Helvetica,sans-Serif" font-size="10.00">+ setNum()</text>
<text text-anchor="start" x="11" y="-349.5" font-family="Helvetica,sans-Serif" font-size="10.00">+ toString()</text>
</a>
</g>
</g>
<!-- Node3&#45;&gt;Node2 -->
<g id="edge2" class="edge">
<title>Node3&#45;&gt;Node2</title>
<path fill="none" stroke="#404040" d="M52,-342.24C52,-329.62 52,-317.55 52,-306.76"/>
<polygon fill="none" stroke="#404040" points="52,-306.74 48,-300.74 52,-294.74 56,-300.74 52,-306.74"/>
<text text-anchor="middle" x="76.5" y="-316" font-family="Helvetica,sans-Serif" font-size="10.00"> +elements</text>
</g>
<!-- Node4 -->
<g id="node4" class="node">
<title>Node4</title>
<g id="a_node4"><a xlink:title=" ">
<polygon fill="white" stroke="#bfbfbf" points="22,-667.5 22,-724.5 82,-724.5 82,-667.5 22,-667.5"/>
<text text-anchor="middle" x="52" y="-712.5" font-family="Helvetica,sans-Serif" font-size="10.00">std::string</text>
<polyline fill="none" stroke="#bfbfbf" points="22,-705.5 82,-705.5 "/>
<text text-anchor="middle" x="52" y="-693.5" font-family="Helvetica,sans-Serif" font-size="10.00"> </text>
<polyline fill="none" stroke="#bfbfbf" points="22,-686.5 82,-686.5 "/>
<text text-anchor="middle" x="52" y="-674.5" font-family="Helvetica,sans-Serif" font-size="10.00"> </text>
</a>
</g>
</g>
<!-- Node4&#45;&gt;Node3 -->
<g id="edge3" class="edge">
<title>Node4&#45;&gt;Node3</title>
<path fill="none" stroke="#404040" d="M52,-667.15C52,-657.23 52,-645.24 52,-632.19"/>
<polygon fill="none" stroke="#404040" points="52,-631.94 48,-625.94 52,-619.94 56,-625.94 52,-631.94"/>
<text text-anchor="middle" x="59.5" y="-641" font-family="Helvetica,sans-Serif" font-size="10.00"> +s</text>
</g>
<!-- Node5 -->
<g id="node5" class="node">
<title>Node5</title>
<g id="a_node5"><a xlink:title=" ">
<polygon fill="white" stroke="#bfbfbf" points="4.5,-762.5 4.5,-830.5 99.5,-830.5 99.5,-762.5 4.5,-762.5"/>
<text text-anchor="start" x="12.5" y="-818.5" font-family="Helvetica,sans-Serif" font-size="10.00">std::basic_string&lt;</text>
<text text-anchor="middle" x="52" y="-807.5" font-family="Helvetica,sans-Serif" font-size="10.00"> Char &gt;</text>
<polyline fill="none" stroke="#bfbfbf" points="4.5,-800.5 99.5,-800.5 "/>
<text text-anchor="middle" x="52" y="-788.5" font-family="Helvetica,sans-Serif" font-size="10.00"> </text>
<polyline fill="none" stroke="#bfbfbf" points="4.5,-781.5 99.5,-781.5 "/>
<text text-anchor="middle" x="52" y="-769.5" font-family="Helvetica,sans-Serif" font-size="10.00"> </text>
</a>
</g>
</g>
<!-- Node5&#45;&gt;Node4 -->
<g id="edge4" class="edge">
<title>Node5&#45;&gt;Node4</title>
<path fill="none" stroke="midnightblue" d="M52,-752.38C52,-742.94 52,-733.2 52,-724.57"/>
<polygon fill="none" stroke="midnightblue" points="48.5,-752.43 52,-762.43 55.5,-752.43 48.5,-752.43"/>
</g>
</g>
</svg>
