<?xml version="1.0" encoding="UTF-8" standalone="no"?>
<!DOCTYPE svg PUBLIC "-//W3C//DTD SVG 1.1//EN"
 "http://www.w3.org/Graphics/SVG/1.1/DTD/svg11.dtd">
<!-- Generated by graphviz version 2.43.0 (0)
 -->
<!-- Title: manet::QuadTreeNode&lt; T &gt; Pages: 1 -->
<svg width="244pt" height="573pt"
 viewBox="0.00 0.00 243.50 573.00" xmlns="http://www.w3.org/2000/svg" xmlns:xlink="http://www.w3.org/1999/xlink">
<g id="graph0" class="graph" transform="scale(1 1) rotate(0) translate(4 569)">
<title>manet::QuadTreeNode&lt; T &gt;</title>
<polygon fill="white" stroke="transparent" points="-4,4 -4,-569 239.5,-569 239.5,4 -4,4"/>
<!-- Node1 -->
<g id="node1" class="node">
<title>Node1</title>
<g id="a_node1"><a xlink:title=" ">
<polygon fill="#bfbfbf" stroke="black" points="10,-0.5 10,-211.5 150,-211.5 150,-0.5 10,-0.5"/>
<text text-anchor="middle" x="80" y="-199.5" font-family="Helvetica,sans-Serif" font-size="10.00">manet::QuadTreeNode&lt; T &gt;</text>
<polyline fill="none" stroke="black" points="10,-192.5 150,-192.5 "/>
<text text-anchor="start" x="18" y="-180.5" font-family="Helvetica,sans-Serif" font-size="10.00"># capacity</text>
<polyline fill="none" stroke="black" points="10,-173.5 150,-173.5 "/>
<text text-anchor="start" x="18" y="-161.5" font-family="Helvetica,sans-Serif" font-size="10.00">+ QuadTreeNode()</text>
<text text-anchor="start" x="18" y="-150.5" font-family="Helvetica,sans-Serif" font-size="10.00">+ QuadTreeNode()</text>
<text text-anchor="start" x="18" y="-139.5" font-family="Helvetica,sans-Serif" font-size="10.00">+ ~QuadTreeNode()</text>
<text text-anchor="start" x="18" y="-128.5" font-family="Helvetica,sans-Serif" font-size="10.00">+ insert()</text>
<text text-anchor="start" x="18" y="-117.5" font-family="Helvetica,sans-Serif" font-size="10.00">+ insert()</text>
<text text-anchor="start" x="18" y="-106.5" font-family="Helvetica,sans-Serif" font-size="10.00">+ intersects()</text>
<text text-anchor="start" x="18" y="-95.5" font-family="Helvetica,sans-Serif" font-size="10.00">+ intersects()</text>
<text text-anchor="start" x="18" y="-84.5" font-family="Helvetica,sans-Serif" font-size="10.00">+ isLeaf()</text>
<text text-anchor="start" x="18" y="-73.5" font-family="Helvetica,sans-Serif" font-size="10.00">+ printAll()</text>
<text text-anchor="start" x="18" y="-62.5" font-family="Helvetica,sans-Serif" font-size="10.00">+ printData()</text>
<text text-anchor="start" x="18" y="-51.5" font-family="Helvetica,sans-Serif" font-size="10.00">+ putAllPoints()</text>
<text text-anchor="start" x="18" y="-40.5" font-family="Helvetica,sans-Serif" font-size="10.00">+ putPointsInRadius()</text>
<text text-anchor="start" x="18" y="-29.5" font-family="Helvetica,sans-Serif" font-size="10.00">+ putPointsInRange()</text>
<text text-anchor="start" x="18" y="-18.5" font-family="Helvetica,sans-Serif" font-size="10.00">+ split()</text>
<text text-anchor="start" x="18" y="-7.5" font-family="Helvetica,sans-Serif" font-size="10.00">+ traverse()</text>
</a>
</g>
</g>
<!-- Node1&#45;&gt;Node1 -->
<g id="edge2" class="edge">
<title>Node1&#45;&gt;Node1</title>
<path fill="none" stroke="#404040" d="M150.07,-127.88C160.75,-124.54 168,-117.25 168,-106 168,-99.14 165.31,-93.76 160.79,-89.84"/>
<polygon fill="none" stroke="#404040" points="160.66,-89.77 153.48,-90.47 150.07,-84.12 157.25,-83.41 160.66,-89.77"/>
<text text-anchor="middle" x="179.5" y="-120" font-family="Helvetica,sans-Serif" font-size="10.00"> #NE</text>
<text text-anchor="middle" x="179.5" y="-109" font-family="Helvetica,sans-Serif" font-size="10.00">#NW</text>
<text text-anchor="middle" x="179.5" y="-98" font-family="Helvetica,sans-Serif" font-size="10.00">#SE</text>
<text text-anchor="middle" x="179.5" y="-87" font-family="Helvetica,sans-Serif" font-size="10.00">#SW</text>
</g>
<!-- Node2 -->
<g id="node2" class="node">
<title>Node2</title>
<g id="a_node2"><a xlink:title=" ">
<polygon fill="white" stroke="#bfbfbf" points="0,-314.5 0,-382.5 110,-382.5 110,-314.5 0,-314.5"/>
<text text-anchor="start" x="8" y="-370.5" font-family="Helvetica,sans-Serif" font-size="10.00">std::vector&lt; std::pair</text>
<text text-anchor="middle" x="55" y="-359.5" font-family="Helvetica,sans-Serif" font-size="10.00">&lt; manet::point, T &gt; &gt;</text>
<polyline fill="none" stroke="#bfbfbf" points="0,-352.5 110,-352.5 "/>
<text text-anchor="start" x="8" y="-340.5" font-family="Helvetica,sans-Serif" font-size="10.00">+ elements</text>
<polyline fill="none" stroke="#bfbfbf" points="0,-333.5 110,-333.5 "/>
<text text-anchor="middle" x="55" y="-321.5" font-family="Helvetica,sans-Serif" font-size="10.00"> </text>
</a>
</g>
</g>
<!-- Node2&#45;&gt;Node1 -->
<g id="edge1" class="edge">
<title>Node2&#45;&gt;Node1</title>
<path fill="none" stroke="#404040" d="M58.45,-314.31C60.92,-290.56 64.4,-257.03 67.85,-223.85"/>
<polygon fill="none" stroke="#404040" points="67.88,-223.59 64.52,-217.21 69.12,-211.66 72.48,-218.04 67.88,-223.59"/>
<text text-anchor="middle" x="81" y="-233" font-family="Helvetica,sans-Serif" font-size="10.00"> #data</text>
</g>
<!-- Node3 -->
<g id="node3" class="node">
<title>Node3</title>
<g id="a_node3"><a xlink:href="classmanet_1_1BoundingBox.html" target="_top" xlink:title=" ">
<polygon fill="white" stroke="black" points="128.5,-259.5 128.5,-437.5 235.5,-437.5 235.5,-259.5 128.5,-259.5"/>
<text text-anchor="middle" x="182" y="-425.5" font-family="Helvetica,sans-Serif" font-size="10.00">manet::BoundingBox</text>
<polyline fill="none" stroke="black" points="128.5,-418.5 235.5,-418.5 "/>
<text text-anchor="start" x="136.5" y="-406.5" font-family="Helvetica,sans-Serif" font-size="10.00"># x0</text>
<text text-anchor="start" x="136.5" y="-395.5" font-family="Helvetica,sans-Serif" font-size="10.00"># x1</text>
<text text-anchor="start" x="136.5" y="-384.5" font-family="Helvetica,sans-Serif" font-size="10.00"># y0</text>
<text text-anchor="start" x="136.5" y="-373.5" font-family="Helvetica,sans-Serif" font-size="10.00"># y1</text>
<polyline fill="none" stroke="black" points="128.5,-366.5 235.5,-366.5 "/>
<text text-anchor="start" x="136.5" y="-354.5" font-family="Helvetica,sans-Serif" font-size="10.00">+ BoundingBox()</text>
<text text-anchor="start" x="136.5" y="-343.5" font-family="Helvetica,sans-Serif" font-size="10.00">+ BoundingBox()</text>
<text text-anchor="start" x="136.5" y="-332.5" font-family="Helvetica,sans-Serif" font-size="10.00">+ contains()</text>
<text text-anchor="start" x="136.5" y="-321.5" font-family="Helvetica,sans-Serif" font-size="10.00">+ contains()</text>
<text text-anchor="start" x="136.5" y="-310.5" font-family="Helvetica,sans-Serif" font-size="10.00">+ contains()</text>
<text text-anchor="start" x="136.5" y="-299.5" font-family="Helvetica,sans-Serif" font-size="10.00">+ BoundingBox()</text>
<text text-anchor="start" x="136.5" y="-288.5" font-family="Helvetica,sans-Serif" font-size="10.00">+ BoundingBox()</text>
<text text-anchor="start" x="136.5" y="-277.5" font-family="Helvetica,sans-Serif" font-size="10.00">+ contains()</text>
<text text-anchor="start" x="136.5" y="-266.5" font-family="Helvetica,sans-Serif" font-size="10.00">+ contains()</text>
</a>
</g>
</g>
<!-- Node3&#45;&gt;Node1 -->
<g id="edge3" class="edge">
<title>Node3&#45;&gt;Node1</title>
<path fill="none" stroke="#404040" d="M144.6,-259.31C139.59,-247.51 134.4,-235.26 129.23,-223.07"/>
<polygon fill="none" stroke="#404040" points="129.18,-222.95 123.15,-218.99 124.49,-211.9 130.52,-215.87 129.18,-222.95"/>
<text text-anchor="middle" x="158.5" y="-233" font-family="Helvetica,sans-Serif" font-size="10.00"> #boundary</text>
</g>
<!-- Node4 -->
<g id="node4" class="node">
<title>Node4</title>
<g id="a_node4"><a xlink:href="classmanet_1_1point.html" target="_top" xlink:title=" ">
<polygon fill="white" stroke="black" points="146.5,-496.5 146.5,-564.5 217.5,-564.5 217.5,-496.5 146.5,-496.5"/>
<text text-anchor="middle" x="182" y="-552.5" font-family="Helvetica,sans-Serif" font-size="10.00">manet::point</text>
<polyline fill="none" stroke="black" points="146.5,-545.5 217.5,-545.5 "/>
<text text-anchor="start" x="154.5" y="-533.5" font-family="Helvetica,sans-Serif" font-size="10.00">+ x</text>
<text text-anchor="start" x="154.5" y="-522.5" font-family="Helvetica,sans-Serif" font-size="10.00">+ y</text>
<polyline fill="none" stroke="black" points="146.5,-515.5 217.5,-515.5 "/>
<text text-anchor="start" x="154.5" y="-503.5" font-family="Helvetica,sans-Serif" font-size="10.00">+ point()</text>
</a>
</g>
</g>
<!-- Node4&#45;&gt;Node3 -->
<g id="edge4" class="edge">
<title>Node4&#45;&gt;Node3</title>
<path fill="none" stroke="#404040" d="M182,-496.49C182,-483.09 182,-466.84 182,-450.09"/>
<polygon fill="none" stroke="#404040" points="182,-449.84 178,-443.84 182,-437.84 186,-443.84 182,-449.84"/>
<text text-anchor="middle" x="189.5" y="-470" font-family="Helvetica,sans-Serif" font-size="10.00"> +a</text>
<text text-anchor="middle" x="189.5" y="-459" font-family="Helvetica,sans-Serif" font-size="10.00">+b</text>
</g>
</g>
</svg>
