<?xml version="1.0" encoding="UTF-8" standalone="no"?>
<!DOCTYPE svg PUBLIC "-//W3C//DTD SVG 1.1//EN"
 "http://www.w3.org/Graphics/SVG/1.1/DTD/svg11.dtd">
<!-- Generated by graphviz version 2.43.0 (0)
 -->
<!-- Title: manet::AcceptSparseNeighbourhood Pages: 1 -->
<svg width="184pt" height="226pt"
 viewBox="0.00 0.00 184.00 226.00" xmlns="http://www.w3.org/2000/svg" xmlns:xlink="http://www.w3.org/1999/xlink">
<g id="graph0" class="graph" transform="scale(1 1) rotate(0) translate(4 222)">
<title>manet::AcceptSparseNeighbourhood</title>
<polygon fill="white" stroke="transparent" points="-4,4 -4,-222 180,-222 180,4 -4,4"/>
<!-- Node1 -->
<g id="node1" class="node">
<title>Node1</title>
<g id="a_node1"><a xlink:title=" ">
<polygon fill="#bfbfbf" stroke="black" points="0,-0.5 0,-101.5 176,-101.5 176,-0.5 0,-0.5"/>
<text text-anchor="middle" x="88" y="-89.5" font-family="Helvetica,sans-Serif" font-size="10.00">manet::AcceptSparseNeighbourhood</text>
<polyline fill="none" stroke="black" points="0,-82.5 176,-82.5 "/>
<text text-anchor="start" x="8" y="-70.5" font-family="Helvetica,sans-Serif" font-size="10.00"># radius</text>
<text text-anchor="start" x="8" y="-59.5" font-family="Helvetica,sans-Serif" font-size="10.00"># maxNeighbours</text>
<text text-anchor="start" x="8" y="-48.5" font-family="Helvetica,sans-Serif" font-size="10.00"># D</text>
<polyline fill="none" stroke="black" points="0,-41.5 176,-41.5 "/>
<text text-anchor="start" x="8" y="-29.5" font-family="Helvetica,sans-Serif" font-size="10.00">+ AcceptSparseNeighbourhood()</text>
<text text-anchor="start" x="8" y="-18.5" font-family="Helvetica,sans-Serif" font-size="10.00">+ ~AcceptSparseNeighbourhood()</text>
<text text-anchor="start" x="8" y="-7.5" font-family="Helvetica,sans-Serif" font-size="10.00">+ operator()()</text>
</a>
</g>
</g>
<!-- Node2 -->
<g id="node2" class="node">
<title>Node2</title>
<g id="a_node2"><a xlink:href="classmanet_1_1AcceptPlacement.html" target="_top" xlink:title=" ">
<polygon fill="white" stroke="black" points="24.5,-138.5 24.5,-217.5 151.5,-217.5 151.5,-138.5 24.5,-138.5"/>
<text text-anchor="middle" x="88" y="-205.5" font-family="Helvetica,sans-Serif" font-size="10.00">manet::AcceptPlacement</text>
<polyline fill="none" stroke="black" points="24.5,-198.5 151.5,-198.5 "/>
<text text-anchor="middle" x="88" y="-186.5" font-family="Helvetica,sans-Serif" font-size="10.00"> </text>
<polyline fill="none" stroke="black" points="24.5,-179.5 151.5,-179.5 "/>
<text text-anchor="start" x="32.5" y="-167.5" font-family="Helvetica,sans-Serif" font-size="10.00">+ AcceptPlacement()</text>
<text text-anchor="start" x="32.5" y="-156.5" font-family="Helvetica,sans-Serif" font-size="10.00">+ ~AcceptPlacement()</text>
<text text-anchor="start" x="32.5" y="-145.5" font-family="Helvetica,sans-Serif" font-size="10.00">+ operator()()</text>
</a>
</g>
</g>
<!-- Node2&#45;&gt;Node1 -->
<g id="edge1" class="edge">
<title>Node2&#45;&gt;Node1</title>
<path fill="none" stroke="midnightblue" d="M88,-128.41C88,-119.64 88,-110.49 88,-101.69"/>
<polygon fill="none" stroke="midnightblue" points="84.5,-128.48 88,-138.48 91.5,-128.48 84.5,-128.48"/>
</g>
</g>
</svg>
